<svg xmlns="http://www.w3.org/2000/svg" version="1.1" xmlns:xlink="http://www.w3.org/1999/xlink" width="512" height="512" x="0" y="0" viewBox="0 0 512 512" style="enable-background:new 0 0 512 512" xml:space="preserve" class=""><g><linearGradient id="a" x1="256.003" x2="256.004" y1="496.291" y2="15.742" gradientUnits="userSpaceOnUse"><stop stop-opacity="1" stop-color="#019e6d" offset="0"></stop><stop stop-opacity="1" stop-color="#00b1d2" offset="0.49034749034749037"></stop><stop stop-opacity="1" stop-color="#00b1d2" offset="1"></stop></linearGradient><path fill="url(#a)" fill-rule="evenodd" d="M250.408 177.254q5.88 10.29 5.815 13.171a68.566 68.566 0 0 1-10.7 4.444 49 49 0 0 1-61.157-40.989 5.881 5.881 0 0 1-.019-1.47 49.418 49.418 0 0 0-12.194-38.471 6 6 0 0 1 4.189-9.979 101.242 101.242 0 0 1 47.643 9.39 61.676 61.676 0 0 1 34.279 74.22 6.014 6.014 0 0 1-1.679 2.68 123.607 123.607 0 0 1 4.127 12.071q1.068-2.522 2.274-4.981 1.647-4.56 7.207-12.445 1.036-1.47 2.208-3.055c7.094-9.42 15.8-16.889 25.675-20.411a6 6 0 0 1 4.029 11.3c-8.5 3.04-16.142 10.18-22.26 19.2q-.662.909-1.254 1.766a36.592 36.592 0 0 0-4.916 8.954 88.837 88.837 0 0 0-8.779 31.319v41.322h48.134v-5.89a24.081 24.081 0 0 1 10.849-20.479 121 121 0 1 0-135.758 0 24.419 24.419 0 0 1 10.85 20.479v5.89h53.921v-41.5a1.2 1.2 0 0 1 .009-.18v-.09c.411-11.99-2.25-25.81-7.382-38.651q-.095-2.076-4.165-9.26-.5-.876-1.052-1.829c-6.793-12.421-16.052-22.871-27.142-28.19a6 6 0 0 1 5.188-10.82c12.383 5.94 22.624 16.7 30.322 29.5q.926 1.562 1.738 2.983zM32.428 137.21a7.778 7.778 0 0 1 7.769-7.77h84.21a133.377 133.377 0 0 0-1.368 16h-68.61a6 6 0 0 0-6 6v241.439a6 6 0 0 0 6 6h403.143a6 6 0 0 0 6-6V151.44a6 6 0 0 0-6-6h-68.61a131.55 131.55 0 0 0-1.373-16H471.8a7.78 7.78 0 0 1 7.774 7.77v284.58H350.762a5.994 5.994 0 0 0-5.2 3l-16.311 28.25h-146.5l-16.307-28.25a5.991 5.991 0 0 0-5.2-3H32.428zm241.243 65.44q-3.321-1.506-10.689-5.31a6.008 6.008 0 0 1-1.76-3.221 51.607 51.607 0 0 1 34.949-58.768 83.924 83.924 0 0 1 40.11-3.63 5.994 5.994 0 0 1 3.127 10.359 39.391 39.391 0 0 0-12.849 29.48 5.957 5.957 0 0 1-.156 1.45 41.174 41.174 0 0 1-52.732 29.64zm177.9-45.21v229.439H60.429V157.44h62.86a132.965 132.965 0 0 0 58.091 101.4 12.276 12.276 0 0 1 5.59 10.561v7.65a26.105 26.105 0 0 0 .03 48.72 40.988 40.988 0 0 0 40.9 39.568h56.2a40.986 40.986 0 0 0 40.9-39.568 26.1 26.1 0 0 0 .029-48.721v-7.65a12.278 12.278 0 0 1 5.589-10.561 132.963 132.963 0 0 0 58.092-101.4zM501 421.79a11.01 11.01 0 0 1 11 11v26.25a37.3 37.3 0 0 1-37.251 37.251h-437.5A37.291 37.291 0 0 1 0 459.04v-26.25a11 11 0 0 1 11-11h9.43V137.21a19.8 19.8 0 0 1 19.77-19.77h86.536c14.109-58.28 66.7-101.7 129.267-101.7s115.156 43.42 129.27 101.7H471.8a19.793 19.793 0 0 1 19.769 19.77v284.58zm-49.76 37.25a6 6 0 0 0 6 6h.33a6 6 0 0 0 0-12h-.33a5.991 5.991 0 0 0-6 6zm-25.661 0a6 6 0 0 0 6 6h.33a6 6 0 0 0 0-12h-.33a6 6 0 0 0-6 6zm-25.662 0a6 6 0 0 0 6 6h.339a6 6 0 0 0 0-12h-.339a6 6 0 0 0-6 6zm-300.177 0a6 6 0 0 0 6 6h.339a6 6 0 0 0 0-12h-.339a6 6 0 0 0-6 6zm-19.652-6a6 6 0 1 0 0 12h.33a6 6 0 1 0 0-12zm-25.661 0a6 6 0 0 0 0 12h.33a6 6 0 0 0 0-12z" opacity="1" data-original="url(#a)" class=""></path></g></svg>